<svg width="14" height="15" viewBox="0 0 14 15" fill="none" xmlns="http://www.w3.org/2000/svg">
<g clip-path="url(#clip0_212_1587)">
<path fill-rule="evenodd" clip-rule="evenodd" d="M3.41545 0.873169C5.25933 0.873169 6.75411 2.36794 6.75411 4.21183V0.873169H10.0928C11.9367 0.873169 13.4314 2.36794 13.4314 4.21183C13.4314 6.05571 11.9367 7.5505 10.0928 7.5505C11.9367 7.5505 13.4314 9.04529 13.4314 10.8892C13.4314 11.8047 13.0629 12.6342 12.4661 13.2374L12.4536 13.25L12.4425 13.261C11.8392 13.8587 11.0091 14.2278 10.0928 14.2278C9.18269 14.2278 8.35764 13.8637 7.75538 13.2731C7.74757 13.2655 7.73975 13.2577 7.73197 13.25C7.72466 13.2427 7.71738 13.2353 7.71014 13.2279C7.11883 12.6256 6.75411 11.8 6.75411 10.8892C6.75411 12.733 5.25933 14.2278 3.41545 14.2278C1.57155 14.2278 0.0767822 12.733 0.0767822 10.8892V7.5505H3.41545C1.57155 7.5505 0.0767822 6.05571 0.0767822 4.21183C0.0767822 2.36794 1.57155 0.873169 3.41545 0.873169ZM6.08638 4.21183C6.08638 5.68696 4.89057 6.88277 3.41545 6.88277V1.5409C4.89057 1.5409 6.08638 2.73672 6.08638 4.21183ZM12.7637 10.8892C12.7637 9.41404 11.5679 8.21823 10.0928 8.21823C8.61766 8.21823 7.42185 9.41404 7.42185 10.8892H12.7637ZM0.744515 8.21823V10.8892C0.744515 12.3643 1.94033 13.5601 3.41545 13.5601C4.89057 13.5601 6.08638 12.3643 6.08638 10.8892V8.21823H0.744515ZM7.42185 6.88277V1.5409H10.0928C11.5679 1.5409 12.7637 2.73672 12.7637 4.21183C12.7637 5.68696 11.5679 6.88277 10.0928 6.88277H7.42185Z" fill="#5417D7"/>
</g>
<defs>
<clipPath id="clip0_212_1587">
<rect width="13.3547" height="13.3547" fill="white" transform="translate(0.0767822 0.873169)"/>
</clipPath>
</defs>
</svg>
