<svg width="167" height="17" viewBox="0 0 167 17" fill="none" xmlns="http://www.w3.org/2000/svg">
<rect x="0.958862" y="0.808228" width="16.0256" height="16.0256" rx="2.67093" fill="#E8F5E9"/>
<g clip-path="url(#clip0_212_1585)">
<path fill-rule="evenodd" clip-rule="evenodd" d="M4.41545 0.873169C6.25933 0.873169 7.75411 2.36794 7.75411 4.21183V0.873169H11.0928C12.9367 0.873169 14.4314 2.36794 14.4314 4.21183C14.4314 6.05571 12.9367 7.5505 11.0928 7.5505C12.9367 7.5505 14.4314 9.04529 14.4314 10.8892C14.4314 11.8047 14.0629 12.6342 13.4661 13.2374L13.4536 13.25L13.4425 13.261C12.8392 13.8587 12.0091 14.2278 11.0928 14.2278C10.1827 14.2278 9.35764 13.8637 8.75538 13.2731C8.74757 13.2655 8.73975 13.2577 8.73197 13.25C8.72466 13.2427 8.71738 13.2353 8.71014 13.2279C8.11883 12.6256 7.75411 11.8 7.75411 10.8892C7.75411 12.733 6.25933 14.2278 4.41545 14.2278C2.57155 14.2278 1.07678 12.733 1.07678 10.8892V7.5505H4.41545C2.57155 7.5505 1.07678 6.05571 1.07678 4.21183C1.07678 2.36794 2.57155 0.873169 4.41545 0.873169ZM7.08638 4.21183C7.08638 5.68696 5.89057 6.88277 4.41545 6.88277V1.5409C5.89057 1.5409 7.08638 2.73672 7.08638 4.21183ZM13.7637 10.8892C13.7637 9.41404 12.5679 8.21823 11.0928 8.21823C9.61766 8.21823 8.42185 9.41404 8.42185 10.8892H13.7637ZM1.74452 8.21823V10.8892C1.74452 12.3643 2.94033 13.5601 4.41545 13.5601C5.89057 13.5601 7.08638 12.3643 7.08638 10.8892V8.21823H1.74452ZM8.42185 6.88277V1.5409H11.0928C12.5679 1.5409 13.7637 2.73672 13.7637 4.21183C13.7637 5.68696 12.5679 6.88277 11.0928 6.88277H8.42185Z" fill="#5417D7"/>
</g>
<rect x="30.673" y="0.808228" width="16.0256" height="16.0256" rx="2.67093" fill="#F5F7FA"/>
<g clip-path="url(#clip1_212_1585)">
<path fill-rule="evenodd" clip-rule="evenodd" d="M34.0444 5.46944L30.7104 8.76983C31.3773 9.42999 32.1391 9.98634 32.9696 10.4216C33.1992 11.0244 33.559 11.5898 34.0491 12.0749C35.893 13.9003 38.8826 13.9003 40.7264 12.0749C41.2166 11.5898 41.5764 11.0244 41.806 10.4216C42.6365 9.98634 43.3983 9.42999 44.0651 8.76983L40.7339 5.47212C40.7314 5.46965 40.7289 5.46719 40.7264 5.46472C38.8826 3.63936 35.893 3.63936 34.0491 5.46472C34.0475 5.46629 34.0459 5.46786 34.0444 5.46944ZM40.4074 11.0171C39.4359 11.3416 38.416 11.5079 37.3878 11.5079C36.3596 11.5079 35.3397 11.3416 34.3682 11.0171C34.4734 11.1553 34.5896 11.288 34.7168 11.4139C36.192 12.8742 38.5836 12.8742 40.0587 11.4139C40.1859 11.288 40.3022 11.1553 40.4074 11.0171ZM34.7853 6.05964C35.0358 6.22347 35.3022 6.36366 35.5809 6.47796C36.1537 6.71286 36.7677 6.83376 37.3878 6.83376C38.0078 6.83376 38.6218 6.71286 39.1947 6.47796C39.4734 6.36366 39.7397 6.22347 39.9903 6.05963C38.5335 4.68749 36.242 4.68749 34.7853 6.05964Z" fill="#3B4158"/>
</g>
<rect x="60.3871" y="0.808228" width="16.0256" height="16.0256" rx="2.67093" fill="#F5F7FA"/>
<g clip-path="url(#clip2_212_1585)">
<path d="M78.7483 7.32408C78.7502 7.31016 78.7502 7.29608 78.7483 7.28216C78.7501 7.27082 78.7501 7.25925 78.7483 7.24788L78.6123 6.26877C78.5927 6.15163 78.5402 6.04215 78.4607 5.95256L78.4374 5.92589L78.3947 5.88398L76.0397 3.89528L76.1058 3.96005C76.0517 3.89665 75.9839 3.84595 75.9072 3.81166C75.8306 3.77738 75.747 3.76038 75.6628 3.76194H74.9477C74.8315 3.75968 74.7178 3.79592 74.6252 3.86481C74.5279 3.79634 74.4108 3.76028 74.291 3.76194H73.5759C73.4822 3.76045 73.3897 3.78327 73.3078 3.82809C73.2259 3.87291 73.1575 3.93815 73.1096 4.01719C73.0358 4.13009 73.008 4.26612 73.0319 4.39817L73.1213 5.01535C73.0621 4.98245 72.995 4.96537 72.927 4.96583H69.4645C69.3403 4.96659 69.2189 5.00229 69.1147 5.06869C69.014 5.13049 68.9332 5.21899 68.8816 5.32394L68.6134 5.09917C68.5079 5.00344 68.3686 4.95155 68.2248 4.9544H62.7921C62.6674 4.95663 62.5455 4.99077 62.4385 5.05345C62.292 5.13749 62.1847 5.27414 62.1392 5.43443L60.4138 11.0919C60.3816 11.1852 60.3784 11.2857 60.4047 11.3807C60.431 11.4757 60.4856 11.5609 60.5615 11.6253C60.5813 11.6417 60.602 11.657 60.6237 11.671C60.6237 11.671 60.5887 11.6482 60.5693 11.6291L62.9242 13.6216C63.0239 13.7116 63.1541 13.7618 63.2895 13.7626H68.765C68.89 13.7594 69.012 13.7239 69.1186 13.6597C69.1789 13.6274 69.2329 13.5849 69.278 13.534L69.2974 13.5073L69.3285 13.4692L69.3518 13.4273L69.6083 13.6445C69.7065 13.7308 69.8339 13.7783 69.9658 13.7778H75.4529C75.5778 13.7738 75.6996 13.7383 75.8065 13.675C75.8655 13.6407 75.9191 13.5983 75.9659 13.5492L75.9853 13.5226L76.0164 13.4845C76.0329 13.4604 76.0472 13.4349 76.0591 13.4083C76.0718 13.3852 76.0822 13.3609 76.0902 13.3359L77.6641 8.16986V8.12413C77.666 8.1064 77.666 8.08853 77.6641 8.0708V8.03652C77.666 8.02515 77.666 8.01358 77.6641 8.00221C77.6658 7.97812 77.6658 7.95394 77.6641 7.92982H78.1693C78.2132 7.93378 78.2574 7.93378 78.3014 7.92982H78.3364C78.3648 7.92151 78.3922 7.90999 78.418 7.89554H78.4569L78.5268 7.84221L78.5579 7.81935L78.6123 7.75076V7.72792L78.6511 7.66315C78.649 7.65055 78.649 7.63766 78.6511 7.62506C78.6491 7.61888 78.6491 7.61219 78.6511 7.606C78.6594 7.58367 78.6659 7.56073 78.6706 7.53742C78.6688 7.52991 78.6688 7.52207 78.6706 7.51456C78.6687 7.50322 78.6687 7.49162 78.6706 7.48028C78.6706 7.48028 78.7483 7.33169 78.7483 7.32408Z" fill="black"/>
<path d="M68.3841 5.38871C68.4048 5.407 68.4192 5.43105 68.4254 5.45762C68.4317 5.48418 68.4295 5.51199 68.4191 5.53729L66.6976 11.191C66.6759 11.2527 66.6316 11.3043 66.5732 11.3358C66.5258 11.3669 66.4708 11.3853 66.4139 11.3891H60.9423C60.8956 11.3869 60.8513 11.3679 60.818 11.3358C60.7981 11.3178 60.7842 11.2944 60.778 11.2686C60.7717 11.2428 60.7735 11.2158 60.783 11.191L62.5084 5.53729C62.5283 5.47479 62.5712 5.4218 62.6289 5.38871C62.6771 5.35982 62.7318 5.34283 62.7882 5.33918H68.2598C68.3061 5.33962 68.3506 5.35733 68.3841 5.38871ZM65.5279 10.0519L66.5577 6.67641H63.6742L62.6483 10.0519H65.5279ZM73.607 5.44585C73.6257 5.46712 73.649 5.48399 73.6752 5.4952C73.7015 5.50642 73.7299 5.51169 73.7586 5.51062H74.4697C74.4968 5.51088 74.5235 5.50437 74.5473 5.49171C74.5711 5.47904 74.5912 5.46064 74.6057 5.43823C74.6183 5.42074 74.6273 5.40093 74.6319 5.37998C74.6366 5.35904 74.6369 5.3374 74.6329 5.31633L74.493 4.31054C74.4797 4.26399 74.4558 4.22101 74.4231 4.18482C74.4044 4.16355 74.3811 4.14668 74.3548 4.13547C74.3286 4.12426 74.3001 4.11899 74.2715 4.12005H73.5604C73.5333 4.1198 73.5066 4.12631 73.4828 4.13897C73.459 4.15164 73.4389 4.17004 73.4244 4.19244C73.3972 4.24578 73.3855 4.28007 73.3972 4.31054L73.5409 5.31633C73.5483 5.3653 73.5715 5.41068 73.607 5.44585ZM75.8648 4.30292C75.8515 4.25637 75.8276 4.21339 75.7949 4.1772C75.777 4.15601 75.7543 4.13915 75.7287 4.12791C75.7031 4.11668 75.6752 4.11139 75.6472 4.11243H74.9321C74.9055 4.11169 74.8792 4.11803 74.8559 4.13077C74.8327 4.14351 74.8133 4.16219 74.8 4.18482C74.7742 4.21862 74.763 4.26107 74.7689 4.30292L74.9127 5.3087C74.9217 5.35716 74.9446 5.40209 74.9788 5.43823C74.9978 5.45909 75.0212 5.47567 75.0473 5.48685C75.0735 5.49803 75.1018 5.50354 75.1303 5.503H75.8454C75.872 5.50334 75.8981 5.49684 75.9213 5.48414C75.9445 5.47143 75.9639 5.45298 75.9775 5.43062C75.991 5.41357 76.0005 5.39377 76.0052 5.37268C76.0099 5.35158 76.0097 5.32973 76.0047 5.3087L75.8648 4.30292ZM72.9813 5.82683L72.9114 5.33156H69.4645C69.4103 5.33449 69.358 5.35159 69.3129 5.38109C69.2843 5.39639 69.2594 5.4176 69.2399 5.44325C69.2205 5.4689 69.2069 5.49839 69.2002 5.52967L68.9126 6.47449C68.9012 6.4981 68.8972 6.52459 68.9014 6.55043C68.9056 6.57628 68.9176 6.60026 68.9359 6.61927C68.9687 6.64947 69.0115 6.66707 69.0564 6.6688H73.2456L72.2158 10.0443H68.0383C67.9844 10.0455 67.9319 10.0613 67.8867 10.09C67.8318 10.1242 67.7916 10.1771 67.774 10.2385L67.4826 11.1834C67.4731 11.2076 67.4706 11.234 67.4753 11.2595C67.4802 11.2851 67.4921 11.3088 67.5097 11.3281C67.5415 11.3604 67.5846 11.3794 67.6302 11.3815H73.1173C73.1741 11.3767 73.2288 11.3584 73.2767 11.3281C73.3341 11.2965 73.3771 11.2448 73.3972 11.1834L74.9749 6.01732H73.199C73.1708 6.01787 73.1428 6.01274 73.1167 6.00225C73.0907 5.99177 73.0671 5.97615 73.0474 5.95636C73.0153 5.92181 72.9926 5.87989 72.9813 5.83445V5.82683Z" fill="white"/>
</g>
<rect x="90.1012" y="0.808228" width="16.0256" height="16.0256" rx="2.67093" fill="#F5F7FA"/>
<g clip-path="url(#clip3_212_1585)">
<path d="M104.79 5.28581C104.79 5.29709 104.79 5.31121 104.787 5.31967C104.772 5.42974 104.772 5.53981 104.781 5.65271C104.787 5.68093 104.793 5.70915 104.817 5.73173C104.855 5.77407 104.914 5.7656 104.937 5.7148C104.949 5.6894 104.949 5.664 104.943 5.6386C104.914 5.53135 104.908 5.41845 104.905 5.30838C104.905 5.30274 104.905 5.29427 104.905 5.28581C104.937 5.28298 104.967 5.28016 104.993 5.28016C105.014 5.27734 105.031 5.27451 105.046 5.26605C105.09 5.24347 105.09 5.19549 105.043 5.17291C105.025 5.16444 105.002 5.16162 104.981 5.16162C104.908 5.16444 104.834 5.16444 104.761 5.16444C104.734 5.16444 104.708 5.16727 104.681 5.17009C104.667 5.17291 104.649 5.17291 104.637 5.18138C104.617 5.18984 104.605 5.20396 104.605 5.22371C104.608 5.24347 104.617 5.25476 104.637 5.26323C104.649 5.27169 104.664 5.27451 104.678 5.27451C104.714 5.27734 104.752 5.28298 104.79 5.28581ZM105.599 5.41563C105.599 5.41845 105.602 5.42128 105.602 5.42128C105.613 5.49748 105.625 5.57086 105.634 5.64424C105.637 5.66964 105.64 5.69222 105.658 5.71198C105.696 5.75995 105.755 5.75431 105.781 5.70351C105.793 5.67811 105.796 5.65271 105.79 5.62448C105.772 5.53981 105.763 5.45514 105.746 5.3733C105.734 5.32249 105.719 5.27451 105.705 5.22936C105.696 5.20114 105.675 5.18138 105.64 5.17856C105.605 5.17291 105.578 5.18984 105.563 5.21525C105.546 5.23782 105.531 5.2604 105.519 5.28581C105.499 5.33096 105.481 5.37612 105.458 5.41845C105.455 5.42974 105.452 5.43821 105.446 5.44668C105.443 5.44103 105.44 5.43821 105.44 5.43821C105.402 5.36765 105.366 5.29709 105.328 5.22936C105.322 5.22371 105.319 5.21807 105.316 5.21242C105.299 5.18702 105.278 5.17291 105.246 5.17291C105.216 5.17573 105.193 5.19267 105.178 5.21807C105.172 5.22936 105.172 5.23782 105.169 5.24911C105.158 5.33943 105.143 5.42974 105.131 5.52006C105.125 5.57086 105.122 5.62166 105.122 5.67246C105.119 5.68375 105.122 5.69786 105.128 5.70915C105.134 5.73173 105.152 5.74585 105.175 5.74867C105.205 5.75149 105.225 5.74302 105.234 5.72044C105.243 5.70351 105.246 5.6894 105.249 5.67529C105.261 5.62448 105.269 5.5765 105.278 5.52853C105.284 5.5003 105.287 5.47772 105.296 5.44668C105.302 5.45797 105.308 5.46643 105.314 5.4749C105.34 5.50877 105.366 5.54264 105.399 5.57086C105.431 5.59344 105.458 5.59062 105.484 5.56521C105.49 5.55957 105.493 5.55675 105.499 5.5511C105.525 5.51159 105.558 5.47208 105.584 5.43256C105.59 5.42692 105.593 5.42128 105.599 5.41563Z" fill="#3A3B7B"/>
<path d="M98.8232 5.34134C98.8028 5.39497 98.7989 5.43362 98.8083 5.46574C98.8188 5.50941 98.8458 5.52371 98.8825 5.5126C99.2279 5.43063 99.9853 5.66331 100.266 5.72816C100.332 5.74177 100.386 5.65984 100.341 5.58638C100.275 5.51524 99.5176 5.21065 99.2288 5.19404C99.1155 5.1879 98.9131 5.16004 98.8232 5.34134Z" fill="#3A3B7B"/>
<path d="M101.783 4.35536C101.82 4.37576 101.841 4.39521 101.851 4.41694C101.866 4.44545 101.858 4.46518 101.833 4.47524C101.604 4.58219 101.301 5.04262 101.178 5.20142C101.148 5.23795 101.08 5.21672 101.069 5.15665C101.071 5.08872 101.341 4.58905 101.491 4.45296C101.55 4.39982 101.648 4.29557 101.783 4.35536Z" fill="#3A3B7B"/>
<path d="M99.9651 4.12867C100.009 4.09668 100.055 4.08547 100.079 4.10625C100.423 4.38901 100.606 4.83677 100.719 5.24668C100.723 5.25623 100.724 5.26994 100.72 5.28423C100.719 5.29645 100.709 5.30936 100.695 5.31935C100.679 5.33037 100.665 5.33373 100.659 5.32423C100.508 5.12714 99.6456 4.36029 99.9651 4.12867Z" fill="#3A3B7B"/>
<path d="M92.6704 9.03085C92.7529 8.97186 92.8427 8.92274 92.9377 8.88463C93.0371 8.85737 93.143 8.86188 93.2394 8.89753C93.3359 8.93318 93.4176 8.99798 93.4723 9.08217C93.5212 9.16614 93.5403 9.26309 93.5268 9.35842C93.5133 9.45372 93.4679 9.54225 93.3974 9.61066C93.3428 9.66611 93.2808 9.71441 93.213 9.75433C92.911 9.94161 92.6062 10.1186 92.3015 10.3059C92.2392 10.3528 92.173 10.3948 92.1037 10.4316C91.9983 10.4821 91.8778 10.4956 91.7631 10.4698C91.6484 10.4441 91.5467 10.3806 91.4755 10.2905C91.4224 10.2267 91.3775 10.1569 91.3419 10.0827C91.0532 9.50035 90.7538 8.92054 90.4758 8.32791C90.3475 8.07138 90.2433 7.77634 90.1417 7.49157C90.0978 7.40883 90.0892 7.31292 90.1178 7.22419C90.1464 7.13547 90.21 7.06096 90.2949 7.01651C90.3799 6.97206 90.4796 6.96119 90.5727 6.98619C90.6659 7.01118 90.7453 7.07009 90.7939 7.15037C90.9434 7.34106 91.0758 7.54361 91.1895 7.75583C91.4782 8.26892 91.7535 8.782 92.0315 9.27971C92.0477 9.30721 92.0656 9.33375 92.085 9.35923C92.2942 9.2748 92.491 9.1644 92.6704 9.03085Z" fill="#3A3B7B"/>
<path d="M95.6552 8.85187C94.9949 9.59327 93.8883 9.40599 93.3323 8.45164C92.9367 7.77435 92.8672 6.6558 93.7279 5.9503C93.9117 5.8026 94.1315 5.70198 94.3668 5.65783C94.6552 5.61814 94.9494 5.66699 95.2072 5.79738C95.465 5.92778 95.6732 6.13305 95.8022 6.38387C96.2726 7.20483 96.2058 8.25153 95.6552 8.85187ZM95.3879 7.12272C95.3177 6.92098 95.177 6.74875 94.9896 6.63527C94.8835 6.56272 94.7546 6.52745 94.6247 6.53539C94.4947 6.54334 94.3715 6.59401 94.2759 6.67889C93.8937 7.00471 93.8135 7.77693 94.0915 8.23615C94.1269 8.31103 94.1789 8.37757 94.244 8.43113C94.309 8.48469 94.3854 8.52397 94.4679 8.5462C94.5504 8.56844 94.637 8.57311 94.7215 8.55988C94.8061 8.54664 94.8866 8.51583 94.9575 8.4696C95.1647 8.31541 95.3167 8.10311 95.3924 7.8622C95.4681 7.62127 95.4637 7.3637 95.3799 7.1253L95.3879 7.12272Z" fill="#3A3B7B"/>
<path d="M98.3496 7.44604C98.282 7.45999 98.2122 7.46083 98.1442 7.44848C98.0763 7.43614 98.0116 7.4109 97.954 7.37422C97.9036 7.34654 97.8602 7.30849 97.8269 7.26279C97.7937 7.21708 97.7714 7.16489 97.7617 7.10992C97.752 7.05497 97.7551 6.99864 97.7707 6.94497C97.7864 6.8913 97.8143 6.84164 97.8524 6.79954C97.9188 6.71495 98.013 6.6544 98.1197 6.62766C98.3984 6.55003 98.6853 6.50269 98.9751 6.48656C99.0387 6.47946 99.1032 6.48463 99.1648 6.50177C99.2263 6.51893 99.2837 6.54769 99.3335 6.58642C99.3833 6.62513 99.4245 6.67301 99.4548 6.72723C99.485 6.78145 99.5037 6.84093 99.5097 6.90217C99.5932 7.20298 99.6023 7.51837 99.5364 7.82318C99.2958 8.80832 98.4672 9.14695 97.537 8.8314C97.2759 8.74703 97.0469 8.58983 96.8794 8.37988C96.656 8.12705 96.4976 7.82741 96.417 7.50506C96.3517 7.21801 96.3588 6.92015 96.4379 6.63631C96.5169 6.35247 96.6656 6.09089 96.8714 5.87341C97.0668 5.63704 97.3203 5.45102 97.6092 5.33209C97.7917 5.23553 98.0053 5.20807 98.2079 5.25513C98.2539 5.26734 98.2956 5.29113 98.3288 5.32403C98.3619 5.35693 98.3853 5.39774 98.3965 5.44224C98.4077 5.48673 98.4062 5.53328 98.3924 5.57707C98.3785 5.62086 98.3526 5.66029 98.3175 5.69126C98.2508 5.74926 98.1783 5.80081 98.101 5.84519C97.8634 5.99044 97.6566 6.1776 97.4916 6.39676C97.3834 6.53858 97.3089 6.70144 97.2734 6.87385C97.2378 7.04626 97.242 7.22406 97.2858 7.39475C97.3464 7.62747 97.4809 7.83636 97.6706 7.99249C98.2587 8.5056 99.0232 8.01044 98.8895 7.31007C98.6944 7.35626 98.5233 7.405 98.3496 7.44604Z" fill="#3A3B7B"/>
<path d="M101.942 8.89297C101.073 9.40608 100.084 8.89297 99.8678 7.81548C99.7101 7.04584 100.009 5.96834 101.057 5.55786C101.28 5.4724 101.522 5.4424 101.76 5.47063C102.047 5.52092 102.309 5.65617 102.511 5.85731C102.713 6.05845 102.844 6.31533 102.886 6.59175C103.062 7.50761 102.661 8.48507 101.942 8.89297ZM102.244 7.16641C102.244 6.95329 102.165 6.74706 102.022 6.58405C101.946 6.48322 101.835 6.41098 101.709 6.37962C101.584 6.34829 101.451 6.35978 101.333 6.41217C100.862 6.60713 100.531 7.3152 100.651 7.83601C100.66 7.91774 100.688 7.99656 100.732 8.06695C100.776 8.13735 100.836 8.19762 100.907 8.24357C100.978 8.28949 101.059 8.31999 101.143 8.33291C101.228 8.3458 101.314 8.34083 101.397 8.31832C101.645 8.23494 101.861 8.07912 102.013 7.87261C102.165 7.66609 102.245 7.4192 102.244 7.16641Z" fill="#3A3B7B"/>
<path d="M103.764 9.10843C103.751 9.20232 103.7 9.28737 103.621 9.34487C103.543 9.40235 103.444 9.42759 103.346 9.415C103.248 9.40242 103.159 9.35304 103.1 9.27774C103.04 9.20246 103.013 9.1074 103.026 9.0135C103.04 8.91961 103.091 8.83456 103.169 8.77706C103.248 8.71956 103.347 8.69434 103.445 8.70693C103.543 8.71952 103.631 8.76887 103.691 8.84417C103.751 8.91947 103.777 9.01454 103.764 9.10843ZM103.532 5.64759C103.583 5.57307 103.657 5.51632 103.744 5.48581C103.831 5.45529 103.927 5.45265 104.015 5.47827C104.106 5.49997 104.186 5.5508 104.242 5.62226C104.298 5.69372 104.326 5.78146 104.323 5.87079C104.311 6.01408 104.289 6.15639 104.256 6.29665C104.168 6.77127 104.082 7.24587 103.989 7.71537C103.946 7.90265 103.89 8.08223 103.828 8.27207C103.807 8.33142 103.771 8.38504 103.724 8.42857C103.695 8.46131 103.657 8.48642 103.615 8.50158C103.573 8.51676 103.528 8.5215 103.483 8.51536C103.439 8.50922 103.397 8.4924 103.361 8.46648C103.325 8.44054 103.296 8.40632 103.278 8.367C103.246 8.29645 103.229 8.22065 103.227 8.1438C103.227 7.82568 103.227 7.505 103.248 7.1843C103.285 6.72665 103.356 6.27218 103.462 5.82461C103.475 5.76464 103.498 5.7073 103.532 5.65529V5.64759Z" fill="#3A3B7B"/>
<path fill-rule="evenodd" clip-rule="evenodd" d="M91.541 11.17C91.5095 11.2376 91.5008 11.313 91.5162 11.3855C91.5265 11.4812 91.549 11.5752 91.5833 11.6656C91.6262 11.7762 91.6741 11.8856 91.7331 12.0205C91.7467 12.0515 91.7609 12.0839 91.7758 12.118C91.8555 12.3007 91.9554 12.5341 92.0888 12.872C92.1265 12.968 92.16 13.0648 92.1938 13.1622C92.2074 13.2016 92.2211 13.2411 92.2351 13.2807C92.2853 13.4214 92.3717 13.5478 92.4862 13.6481C92.5348 13.7031 92.5993 13.7433 92.6716 13.7633C92.7454 13.7838 92.8238 13.7825 92.8967 13.7596C92.9697 13.7367 93.0337 13.6933 93.0806 13.6349C93.1266 13.5778 93.1539 13.5088 93.1592 13.4368C93.189 13.2966 93.1788 13.1511 93.1297 13.0159C93.0517 12.7914 92.9629 12.5666 92.8604 12.3466L92.86 12.3457C92.6914 12.0016 92.5201 11.6599 92.3407 11.3181L92.3394 11.3157C92.2868 11.2266 92.2186 11.147 92.1377 11.0804C92.0851 11.021 92.0127 10.9809 91.9326 10.9671C91.8509 10.953 91.7666 10.9672 91.6948 11.0072C91.6269 11.0445 91.573 11.1014 91.541 11.17Z" fill="#3A3B7B"/>
<path fill-rule="evenodd" clip-rule="evenodd" d="M94.115 10.3228C93.8508 10.2571 93.5748 10.2475 93.3064 10.2948C93.0984 10.3144 92.8939 10.3604 92.7519 10.4516C92.6797 10.498 92.6213 10.5576 92.5888 10.6334C92.5561 10.7095 92.552 10.7966 92.5787 10.8937C92.6276 11.0714 92.6911 11.2442 92.7543 11.4165L92.7645 11.4444L92.7648 11.445C92.9552 11.9455 93.1474 12.4443 93.3414 12.9414C93.364 13.0197 93.396 13.0953 93.4367 13.1665L93.4375 13.1679C93.4912 13.2564 93.5602 13.3356 93.6415 13.4021C93.6821 13.4387 93.7324 13.464 93.7869 13.4753C93.8419 13.4867 93.8991 13.4834 93.9523 13.4657C94.0056 13.448 94.0527 13.4167 94.0886 13.3751C94.1239 13.3341 94.147 13.2848 94.1555 13.2323C94.1906 13.0896 94.1794 12.9401 94.1233 12.8038C94.1058 12.7579 94.0921 12.711 94.0777 12.6616C94.0729 12.6452 94.068 12.6284 94.0628 12.6114C94.5068 12.4448 94.9792 12.2208 95.1454 11.6997C95.2104 11.5197 95.2159 11.3247 95.1609 11.1415C95.1059 10.9582 94.993 10.7956 94.8378 10.6763C94.6267 10.5093 94.38 10.3886 94.115 10.3228ZM93.3826 10.9619C93.3913 10.9595 93.4001 10.9573 93.409 10.9552C93.698 10.9116 93.9938 10.9697 94.2417 11.1188C94.351 11.1917 94.3958 11.2728 94.4035 11.3507C94.4114 11.431 94.381 11.518 94.3199 11.6017C94.2044 11.7597 93.9937 11.8861 93.8034 11.9097C93.6646 11.603 93.5237 11.2839 93.3826 10.9619Z" fill="#3A3B7B"/>
<path d="M95.8768 9.76136C96.1915 9.62187 96.5813 9.59777 96.8863 9.69585C96.9631 9.71732 97.0298 9.76378 97.0749 9.82726C97.1197 9.89035 97.1403 9.96638 97.1334 10.0424C97.133 10.0917 97.1204 10.1403 97.0966 10.184C97.0725 10.2286 97.0375 10.267 96.9946 10.2958C96.9517 10.3247 96.9023 10.3432 96.8504 10.3499C96.7985 10.3565 96.7457 10.351 96.6964 10.3339L96.6927 10.3326L96.6891 10.3309C96.664 10.3182 96.6372 10.3087 96.6095 10.3025L96.6078 10.3021C96.3932 10.2474 96.1908 10.338 96.1168 10.4494C96.0816 10.5025 96.0772 10.5561 96.1066 10.6049C96.138 10.6571 96.2152 10.7157 96.3713 10.7574C96.4142 10.7688 96.4582 10.7797 96.5028 10.7908C96.6262 10.8214 96.7545 10.8533 96.8785 10.8975L96.879 10.8976C97.4512 11.1066 97.6643 11.5394 97.5914 11.9464C97.5192 12.3489 97.1689 12.7153 96.6422 12.8017C96.4505 12.8425 96.2511 12.8345 96.0636 12.7787C95.8756 12.7226 95.7061 12.6204 95.5721 12.482L95.5686 12.4784C95.5262 12.4263 95.4978 12.365 95.4851 12.3C95.4735 12.2414 95.4797 12.1808 95.5027 12.1254C95.5257 12.0703 95.5645 12.0226 95.6146 11.9878C95.6675 11.9484 95.7313 11.9248 95.7981 11.9199C95.8647 11.915 95.9313 11.9289 95.9897 11.9598C96.0481 11.9869 96.1024 12.0214 96.1511 12.0624L96.152 12.0632C96.2383 12.1389 96.3426 12.1586 96.4426 12.1403C96.5441 12.1218 96.6395 12.0642 96.7009 11.9877C96.7618 11.9117 96.7863 11.8214 96.7573 11.7338C96.728 11.6456 96.6401 11.5467 96.447 11.464C96.3965 11.4434 96.3442 11.4268 96.2897 11.4107C96.2751 11.4063 96.2601 11.402 96.245 11.3976C96.2048 11.3859 96.1633 11.3738 96.1227 11.3605C96.0947 11.3513 96.067 11.3426 96.0395 11.334C95.9644 11.3106 95.8912 11.2877 95.8207 11.257C95.6673 11.2069 95.5348 11.1106 95.4428 10.9825C95.3505 10.8538 95.3041 10.7 95.3104 10.5439C95.3109 10.1636 95.5604 9.90161 95.8768 9.76136Z" fill="#3A3B7B"/>
<path d="M99.8664 9.72088C99.8054 9.69227 99.7379 9.6787 99.6701 9.68136C99.6022 9.68404 99.5362 9.70288 99.4778 9.73622C99.4198 9.76931 99.3713 9.81565 99.3365 9.87113C99.3046 9.91784 99.2825 9.97008 99.2715 10.0249C99.2605 10.0798 99.2607 10.1361 99.2722 10.1908C99.2836 10.2611 99.2962 10.3294 99.3086 10.3968C99.3292 10.5083 99.3493 10.6174 99.3625 10.7285L99.363 10.7314C99.3931 10.9057 99.4089 11.082 99.4103 11.2587L99.4104 11.2612C99.4207 11.4521 99.353 11.6392 99.2217 11.7829L99.2196 11.7854C99.1769 11.8379 99.1198 11.878 99.0547 11.9012C98.9896 11.9244 98.9191 11.9297 98.851 11.9166C98.7829 11.9035 98.72 11.8724 98.6693 11.827C98.6185 11.7815 98.5819 11.7232 98.5636 11.6589C98.5246 11.5234 98.502 11.384 98.4963 11.2436L98.5629 10.2256C98.5639 10.2123 98.565 10.1987 98.5662 10.1849C98.5687 10.154 98.5713 10.1225 98.5724 10.0931C98.574 10.0499 98.5726 10.0054 98.5621 9.96337C98.5514 9.92037 98.531 9.87947 98.4947 9.84463C98.4589 9.81015 98.4105 9.78471 98.3495 9.7674C98.2393 9.73679 98.1462 9.73776 98.0686 9.76938C97.9909 9.801 97.9377 9.85971 97.9 9.92753C97.8626 9.99477 97.8386 10.0744 97.8205 10.1541C97.807 10.2133 97.7962 10.2754 97.7859 10.3345C97.7823 10.3549 97.7788 10.3749 97.7753 10.3944L97.7752 10.3949C97.7202 10.7192 97.7038 11.0484 97.7264 11.3763C97.7306 11.5534 97.7691 11.7283 97.8399 11.8919C97.9198 12.1031 98.0646 12.286 98.2551 12.4166C98.4459 12.5475 98.6737 12.6196 98.9082 12.6234C99.1428 12.6272 99.373 12.5626 99.5683 12.438C99.7634 12.3136 99.9146 12.1353 100.002 11.9267C100.124 11.661 100.181 11.3721 100.169 11.0819C100.162 10.87 100.15 10.6565 100.138 10.4441C100.132 10.3399 100.127 10.2359 100.121 10.1326C100.119 10.029 100.083 9.9286 100.019 9.84496C99.9799 9.79209 99.9273 9.74944 99.8664 9.72088Z" fill="#3A3B7B"/>
<path d="M102.026 11.3171C102.02 11.3247 102.013 11.3325 102.006 11.3406C101.957 11.0658 101.911 10.7911 101.865 10.516C101.848 10.4173 101.832 10.3181 101.815 10.2193L101.813 10.2083L101.807 10.1987C101.795 10.1808 101.794 10.1632 101.794 10.1257V10.1214L101.794 10.1171C101.781 10.0397 101.745 9.96759 101.689 9.91033C101.633 9.85323 101.561 9.81349 101.482 9.79624C101.402 9.77747 101.319 9.78161 101.242 9.80814C101.166 9.83461 101.099 9.88219 101.05 9.9449C101.01 9.99303 100.976 10.0464 100.952 10.1034C100.895 10.2263 100.838 10.3495 100.781 10.473L100.78 10.4752C100.638 10.7835 100.495 11.0939 100.356 11.4068L100.355 11.4078C100.27 11.6107 100.199 11.8244 100.129 12.0375C100.115 12.0801 100.101 12.1226 100.087 12.165C100.061 12.2322 100.05 12.3036 100.054 12.3751C100.049 12.439 100.065 12.5027 100.1 12.5577C100.135 12.6138 100.187 12.658 100.25 12.684C100.316 12.7119 100.39 12.7178 100.461 12.7008C100.531 12.6838 100.593 12.645 100.637 12.5905C100.694 12.5232 100.743 12.4499 100.783 12.3722C100.901 12.1408 101.014 11.9065 101.126 11.6733C101.169 11.5831 101.212 11.5023 101.26 11.4143C101.263 11.4251 101.266 11.4357 101.27 11.4463C101.32 11.6588 101.405 11.8623 101.521 12.0493C101.543 12.089 101.574 12.1236 101.611 12.1509C101.649 12.1785 101.692 12.1978 101.738 12.2077C101.785 12.2175 101.833 12.2175 101.879 12.2078C101.925 12.1981 101.969 12.1787 102.006 12.1512L102.081 12.0976L102.66 11.6297L102.626 11.839C102.579 12.1268 102.532 12.4122 102.482 12.6977C102.45 12.8242 102.45 12.9564 102.483 13.0829C102.497 13.1541 102.532 13.2196 102.586 13.2711C102.639 13.3231 102.708 13.3584 102.782 13.3725C102.857 13.3865 102.934 13.3787 103.004 13.3501C103.073 13.3218 103.132 13.2746 103.173 13.2144C103.269 13.1008 103.328 12.9632 103.344 12.818C103.369 12.613 103.397 12.4052 103.424 12.1975C103.456 11.9581 103.488 11.7187 103.515 11.4839L103.515 11.4832C103.541 11.2262 103.554 10.9682 103.553 10.7099C103.559 10.6284 103.538 10.5471 103.493 10.4776C103.447 10.4079 103.38 10.3537 103.301 10.3227C103.219 10.2867 103.126 10.2771 103.038 10.2953C102.95 10.3133 102.87 10.3578 102.811 10.4223C102.704 10.5171 102.604 10.6185 102.511 10.7259L102.51 10.7266C102.409 10.8479 102.308 10.9716 102.208 11.0945C102.147 11.1692 102.086 11.2437 102.026 11.3171Z" fill="#3A3B7B"/>
</g>
<rect x="119.815" y="0.808228" width="16.0256" height="16.0256" rx="2.67093" fill="#F5F7FA"/>
<g clip-path="url(#clip4_212_1585)">
<path d="M132.648 4.71126C132.648 4.86684 132.776 4.99296 132.933 4.99296H133.219C133.376 4.99296 133.504 4.86684 133.504 4.71126C133.504 4.55569 133.376 4.42957 133.219 4.42957H132.933C132.776 4.42957 132.648 4.55569 132.648 4.71126Z" fill="#212326"/>
<path d="M124.378 13.444H125.763L125.36 13.0456C125.253 12.9399 125.108 12.8806 124.957 12.8806H124.378C122.173 12.8806 120.386 11.1149 120.386 8.93676C120.386 6.75866 122.173 4.99297 124.378 4.99297H128.941C131.146 4.99297 132.933 6.75866 132.933 8.93676C132.933 11.1149 131.146 12.8806 128.941 12.8806H127.234C127.007 12.8806 126.79 12.7915 126.629 12.633L126.157 12.1663C125.889 11.9022 125.527 11.7538 125.148 11.7538H124.378C122.803 11.7538 121.526 10.4926 121.526 8.93676C121.526 7.38097 122.803 6.11976 124.378 6.11976H128.941C130.516 6.11976 131.793 7.38097 131.793 8.93676C131.793 10.4926 130.516 11.7538 128.941 11.7538H127.845C127.618 11.7538 127.401 11.6647 127.24 11.5062L126.768 11.0395C126.5 10.7754 126.137 10.627 125.759 10.627H124.378C123.433 10.627 122.667 9.87023 122.667 8.93676C122.667 8.0033 123.433 7.24656 124.378 7.24656H128.941C129.886 7.24656 130.652 8.0033 130.652 8.93676C130.652 9.85885 129.905 10.6085 128.975 10.6266L128.975 10.627H128.558C128.331 10.627 128.113 10.5379 127.953 10.3795L127.48 9.91271C127.261 9.69596 126.978 9.55716 126.674 9.51432L126.66 9.50016H124.378C124.063 9.50016 123.808 9.24792 123.808 8.93676C123.808 8.62561 124.063 8.37336 124.378 8.37336H128.941C129.256 8.37336 129.511 8.62561 129.511 8.93676C129.511 9.24792 129.256 9.50016 128.941 9.50016H127.8L128.204 9.89855C128.311 10.0042 128.456 10.0636 128.607 10.0636H128.941C129.571 10.0636 130.082 9.55907 130.082 8.93676C130.082 8.31445 129.571 7.80996 128.941 7.80996H124.378C123.748 7.80996 123.237 8.31445 123.237 8.93676C123.237 9.55907 123.748 10.0636 124.378 10.0636H126.472C126.699 10.0636 126.917 10.1526 127.077 10.3111L127.55 10.7778C127.817 11.042 128.18 11.1904 128.558 11.1904H129.084V11.186C130.277 11.1133 131.222 10.1341 131.222 8.93676C131.222 7.69215 130.201 6.68316 128.941 6.68316H124.378C123.118 6.68316 122.097 7.69215 122.097 8.93676C122.097 10.1814 123.118 11.1904 124.378 11.1904H125.759C125.986 11.1904 126.204 11.2794 126.364 11.4379L126.837 11.9046C127.104 12.1688 127.467 12.3172 127.845 12.3172H128.941C130.831 12.3172 132.363 10.8037 132.363 8.93676C132.363 7.06981 130.831 5.55637 128.941 5.55637H124.378C122.488 5.55637 120.956 7.06981 120.956 8.93676C120.956 10.8037 122.488 12.3172 124.378 12.3172H125.148C125.375 12.3172 125.593 12.4062 125.753 12.5647L126.226 13.0314C126.493 13.2956 126.856 13.444 127.234 13.444H128.941C131.461 13.444 133.504 11.426 133.504 8.93676C133.504 6.44751 131.461 4.42957 128.941 4.42957L124.378 4.42957C121.858 4.42957 119.815 6.44751 119.815 8.93676C119.815 11.426 121.858 13.444 124.378 13.444Z" fill="#212326"/>
</g>
<rect x="149.529" y="0.808228" width="16.0256" height="16.0256" rx="2.67093" fill="#F5F7FA"/>
<g clip-path="url(#clip5_212_1585)">
<path d="M153.65 5.43115C152.972 5.43115 152.322 5.70048 151.843 6.17989L150.278 7.74449C149.799 8.2239 149.529 8.87412 149.529 9.55211C149.529 10.964 150.674 12.1085 152.086 12.1085C152.764 12.1085 153.414 11.8391 153.893 11.3597L154.976 10.2775C154.976 10.2775 154.976 10.2775 154.976 10.2775L158.129 7.12421C158.358 6.89525 158.668 6.76662 158.992 6.76662C159.534 6.76662 159.994 7.11994 160.153 7.60887L161.148 6.6137C160.694 5.90265 159.898 5.43115 158.992 5.43115C158.314 5.43115 157.664 5.70048 157.185 6.17989L152.949 10.4154C152.72 10.6444 152.41 10.773 152.086 10.773C151.412 10.773 150.865 10.2264 150.865 9.55211C150.865 9.22831 150.994 8.91777 151.222 8.6888L152.787 7.12421C153.016 6.89525 153.327 6.76662 153.65 6.76662C154.193 6.76662 154.652 7.11996 154.811 7.6089L155.807 6.61372C155.353 5.90266 154.557 5.43115 153.65 5.43115Z" fill="#394149"/>
<path d="M158.291 10.4154C158.062 10.6444 157.752 10.773 157.428 10.773C156.886 10.773 156.426 10.4198 156.267 9.93094L155.272 10.9261C155.726 11.637 156.522 12.1085 157.428 12.1085C158.106 12.1085 158.756 11.8391 159.235 11.3597L163.471 7.12421C163.7 6.89525 164.01 6.76662 164.334 6.76662C165.008 6.76662 165.555 7.31323 165.555 7.98752C165.555 8.31133 165.426 8.62187 165.198 8.85084L163.633 10.4154C163.404 10.6444 163.093 10.773 162.77 10.773C162.228 10.773 161.768 10.4197 161.609 9.93083L160.613 10.926C161.067 11.637 161.863 12.1085 162.77 12.1085C163.448 12.1085 164.098 11.8391 164.577 11.3597L166.142 9.79514C166.621 9.31573 166.891 8.66552 166.891 7.98752C166.891 6.57568 165.746 5.43115 164.334 5.43115C163.656 5.43115 163.006 5.70048 162.527 6.17989L158.291 10.4154Z" fill="#394149"/>
</g>
<defs>
<clipPath id="clip0_212_1585">
<rect width="13.3547" height="13.3547" fill="white" transform="translate(1.07678 0.873169)"/>
</clipPath>
<clipPath id="clip1_212_1585">
<rect width="13.3547" height="9.34826" fill="white" transform="translate(30.7104 4.0957)"/>
</clipPath>
<clipPath id="clip2_212_1585">
<rect width="18.3627" height="10.016" fill="white" transform="translate(60.3871 3.76184)"/>
</clipPath>
<clipPath id="clip3_212_1585">
<rect width="15.6917" height="9.68213" fill="white" transform="translate(90.1012 4.0957)"/>
</clipPath>
<clipPath id="clip4_212_1585">
<rect width="13.6885" height="9.0144" fill="white" transform="translate(119.815 4.42957)"/>
</clipPath>
<clipPath id="clip5_212_1585">
<rect width="17.3611" height="6.67733" fill="white" transform="translate(149.529 5.43115)"/>
</clipPath>
</defs>
</svg>
