<svg width="7" height="7" viewBox="0 0 7 7" fill="none" xmlns="http://www.w3.org/2000/svg">
<g clip-path="url(#clip0_390_587)">
<path fill-rule="evenodd" clip-rule="evenodd" d="M6.34964 0.775984C6.41766 0.844002 6.4407 0.944972 6.40893 1.03576L4.65613 6.04376C4.62221 6.14067 4.53258 6.20705 4.42999 6.21123C4.32741 6.21542 4.23266 6.15656 4.19097 6.06274L3.22848 3.89715L1.06289 2.93466C0.969069 2.89296 0.910209 2.79822 0.914394 2.69564C0.918579 2.59305 0.984961 2.50342 1.08187 2.4695L6.08986 0.716702C6.18066 0.684924 6.28163 0.707966 6.34964 0.775984ZM3.71685 3.7629L4.39209 5.28219L5.57376 1.90599L3.71685 3.7629ZM5.21964 1.55187L1.84344 2.73354L3.36273 3.40878L5.21964 1.55187Z" fill="white"/>
</g>
<defs>
<clipPath id="clip0_390_587">
<rect width="6.0096" height="6.0096" fill="white" transform="translate(0.663818 0.452271)"/>
</clipPath>
</defs>
</svg>
