<svg width="11" height="11" viewBox="0 0 11 11" fill="none" xmlns="http://www.w3.org/2000/svg">
<path opacity="0.1" fill-rule="evenodd" clip-rule="evenodd" d="M0.0880127 5.39545C0.0880127 2.44522 2.47965 0.0535889 5.42988 0.0535889C8.38011 0.0535889 10.7717 2.44522 10.7717 5.39545C10.7717 8.34568 8.38011 10.7373 5.42988 10.7373C2.47965 10.7373 0.0880127 8.34568 0.0880127 5.39545Z" fill="white"/>
<path fill-rule="evenodd" clip-rule="evenodd" d="M5.43007 2.54645C4.65632 2.54645 4.55922 2.54983 4.25532 2.56366C3.95202 2.57755 3.74499 2.62557 3.56384 2.69602C3.37646 2.76879 3.21751 2.86613 3.05915 3.02455C2.90067 3.18291 2.80333 3.34186 2.73032 3.52918C2.65969 3.71039 2.61162 3.91748 2.59796 4.22066C2.58437 4.52456 2.58081 4.62172 2.58081 5.39547C2.58081 6.16922 2.58425 6.26603 2.59802 6.56992C2.61197 6.87322 2.65999 7.08025 2.73038 7.2614C2.80321 7.44879 2.90055 7.60774 3.05897 7.7661C3.21727 7.92457 3.37622 8.02215 3.56349 8.09492C3.74476 8.16538 3.95184 8.21339 4.25509 8.22728C4.55898 8.24111 4.65603 8.2445 5.42972 8.2445C6.20352 8.2445 6.30033 8.24111 6.60423 8.22728C6.90753 8.21339 7.1148 8.16538 7.29606 8.09492C7.48339 8.02215 7.6421 7.92457 7.8004 7.7661C7.95888 7.60774 8.05622 7.44879 8.12923 7.26146C8.19926 7.08025 8.24734 6.87317 8.26159 6.56998C8.27524 6.26609 8.2788 6.16922 8.2788 5.39547C8.2788 4.62172 8.27524 4.52462 8.26159 4.22072C8.24734 3.91742 8.19926 3.71039 8.12923 3.52924C8.05622 3.34186 7.95888 3.18291 7.8004 3.02455C7.64192 2.86607 7.48345 2.76873 7.29589 2.69602C7.11426 2.62557 6.90711 2.57755 6.60381 2.56366C6.29991 2.54983 6.20317 2.54645 5.42918 2.54645H5.43007ZM5.17448 3.05986C5.25033 3.05974 5.33497 3.05986 5.43006 3.05986C6.19075 3.05986 6.28091 3.06259 6.5813 3.07624C6.85908 3.08894 7.00984 3.13536 7.11027 3.17435C7.24323 3.22599 7.33802 3.28772 7.43767 3.38744C7.53739 3.48715 7.59912 3.58212 7.65087 3.71507C7.68987 3.81538 7.73634 3.96614 7.74899 4.24392C7.76264 4.54426 7.76561 4.63448 7.76561 5.39481C7.76561 6.15514 7.76264 6.24536 7.74899 6.5457C7.73629 6.82348 7.68987 6.97424 7.65087 7.07455C7.59924 7.2075 7.53739 7.30217 7.43767 7.40183C7.33796 7.50155 7.24329 7.56327 7.11027 7.61491C7.00996 7.65409 6.85908 7.70038 6.5813 7.71309C6.28097 7.72674 6.19075 7.72971 5.43006 7.72971C4.66931 7.72971 4.57915 7.72674 4.27882 7.71309C4.00104 7.70027 3.85028 7.65385 3.74979 7.61485C3.61683 7.56322 3.52187 7.50149 3.42215 7.40177C3.32243 7.30205 3.26071 7.20732 3.20895 7.07431C3.16995 6.974 3.12348 6.82324 3.11084 6.54546C3.09718 6.24513 3.09445 6.15491 3.09445 5.3941C3.09445 4.63329 3.09718 4.54355 3.11084 4.24321C3.12354 3.96543 3.16995 3.81467 3.20895 3.71424C3.26059 3.58129 3.32243 3.48632 3.42215 3.38661C3.52187 3.28689 3.61683 3.22516 3.74979 3.1734C3.85022 3.13423 4.00104 3.08793 4.27882 3.07517C4.54164 3.0633 4.64349 3.05974 5.17448 3.05915V3.05986ZM6.95085 3.53292C6.7621 3.53292 6.60896 3.68587 6.60896 3.87468C6.60896 4.06343 6.7621 4.21656 6.95085 4.21656C7.13959 4.21656 7.29273 4.06343 7.29273 3.87468C7.29273 3.68593 7.13959 3.53292 6.95085 3.53292ZM5.43008 3.93237C4.62208 3.93237 3.96698 4.58747 3.96698 5.39546C3.96698 6.20346 4.62208 6.85826 5.43008 6.85826C6.23807 6.85826 6.89293 6.20346 6.89293 5.39546C6.89293 4.58747 6.23807 3.93237 5.43008 3.93237ZM5.43007 4.44579C5.95452 4.44579 6.37974 4.87095 6.37974 5.39546C6.37974 5.91992 5.95452 6.34514 5.43007 6.34514C4.90555 6.34514 4.48039 5.91992 4.48039 5.39546C4.48039 4.87095 4.90555 4.44579 5.43007 4.44579Z" fill="white"/>
</svg>
