<svg width="11" height="11" viewBox="0 0 11 11" fill="none" xmlns="http://www.w3.org/2000/svg">
<path opacity="0.1" fill-rule="evenodd" clip-rule="evenodd" d="M0.164795 5.39545C0.164795 2.44522 2.55643 0.0535889 5.50666 0.0535889C8.45689 0.0535889 10.8485 2.44522 10.8485 5.39545C10.8485 8.34568 8.45689 10.7373 5.50666 10.7373C2.55643 10.7373 0.164795 8.34568 0.164795 5.39545Z" fill="white"/>
<path fill-rule="evenodd" clip-rule="evenodd" d="M7.73272 3.55904C7.9779 3.62631 8.17098 3.82455 8.23651 4.07628C8.35558 4.53253 8.35558 5.48448 8.35558 5.48448C8.35558 5.48448 8.35558 6.43641 8.23651 6.89268C8.17098 7.14442 7.9779 7.34265 7.73272 7.40996C7.28841 7.5322 5.50659 7.5322 5.50659 7.5322C5.50659 7.5322 3.72477 7.5322 3.28042 7.40996C3.03525 7.34265 2.84216 7.14442 2.77664 6.89268C2.65759 6.43641 2.65759 5.48448 2.65759 5.48448C2.65759 5.48448 2.65759 4.53253 2.77664 4.07628C2.84216 3.82455 3.03525 3.62631 3.28042 3.55904C3.72477 3.43677 5.50659 3.43677 5.50659 3.43677C5.50659 3.43677 7.28841 3.43677 7.73272 3.55904ZM4.97241 4.68318V6.46381L6.3969 5.57353L4.97241 4.68318Z" fill="white"/>
</svg>
