<svg width="11" height="11" viewBox="0 0 11 11" fill="none" xmlns="http://www.w3.org/2000/svg">
<path opacity="0.1" fill-rule="evenodd" clip-rule="evenodd" d="M0.113525 5.39545C0.113525 2.44522 2.50516 0.0535889 5.45539 0.0535889C8.40562 0.0535889 10.7973 2.44522 10.7973 5.39545C10.7973 8.34568 8.40562 10.7373 5.45539 10.7373C2.50516 10.7373 0.113525 8.34568 0.113525 5.39545Z" fill="white"/>
<path fill-rule="evenodd" clip-rule="evenodd" d="M8.30443 5.39149C8.30443 5.58416 8.28482 5.77657 8.24629 5.96412C8.20872 6.14721 8.15308 6.32697 8.08018 6.49881C8.00896 6.6676 7.92062 6.83027 7.81739 6.98196C7.7157 7.1327 7.59856 7.27411 7.46987 7.40303C7.34091 7.53138 7.19901 7.6482 7.04835 7.75032C6.89615 7.85283 6.73326 7.94104 6.56436 8.0126C6.39227 8.08511 6.2121 8.14067 6.02917 8.17818C5.84137 8.21681 5.64826 8.23653 5.45531 8.23653C5.26222 8.23653 5.06912 8.21681 4.88159 8.17818C4.69838 8.14067 4.51822 8.08511 4.34626 8.0126C4.17738 7.94104 4.01432 7.85283 3.86213 7.75032C3.71147 7.64821 3.56957 7.53138 3.44088 7.40303C3.31206 7.27411 3.19492 7.1327 3.09309 6.98196C2.99042 6.83027 2.90193 6.66759 2.83043 6.49881C2.75752 6.32697 2.70174 6.1472 2.66404 5.96412C2.62593 5.77657 2.60645 5.58416 2.60645 5.39149C2.60645 5.19868 2.62592 5.00586 2.66405 4.81872C2.70176 4.63563 2.75753 4.45559 2.83044 4.28403C2.90194 4.11511 2.99043 3.95231 3.0931 3.8006C3.19493 3.64974 3.31207 3.50859 3.44089 3.37954C3.56958 3.25117 3.71148 3.13463 3.86214 3.03266C4.01434 2.92972 4.17739 2.84152 4.34627 2.76983C4.51823 2.69716 4.69838 2.64146 4.8816 2.60424C5.06913 2.5659 5.26223 2.54645 5.45532 2.54645C5.64827 2.54645 5.84137 2.5659 6.02918 2.60424C6.21211 2.64148 6.39227 2.69717 6.56437 2.76983C6.73326 2.84151 6.89616 2.92972 7.04836 3.03266C7.19902 3.13463 7.34093 3.25117 7.46989 3.37954C7.59857 3.50859 7.71572 3.64974 7.8174 3.8006C7.92062 3.95231 8.00896 4.11512 8.08018 4.28403C8.15308 4.45559 8.20872 4.63563 8.24629 4.81872C8.28482 5.00586 8.30443 5.19868 8.30443 5.39149ZM4.4172 3.19394C3.73871 3.51388 3.23232 4.13817 3.07442 4.89055C3.13856 4.89111 4.15246 4.90389 5.32063 4.59395C4.89952 3.84685 4.44962 3.23716 4.4172 3.19394ZM5.52221 4.96808C4.26945 5.34258 3.06733 5.31564 3.02421 5.31398C3.0235 5.34009 3.02225 5.36537 3.02225 5.39149C3.02225 6.01564 3.25806 6.58464 3.64564 7.01488C3.64481 7.01363 4.31064 5.83408 5.62363 5.41011C5.65534 5.39955 5.68763 5.3901 5.71962 5.38093C5.65856 5.24286 5.5919 5.10449 5.52221 4.96808ZM7.06212 3.56805C6.63377 3.19088 6.07132 2.9621 5.4553 2.9621C5.25761 2.9621 5.06577 2.986 4.882 3.03017C4.91844 3.07907 5.37545 3.68447 5.79155 4.4474C6.7096 4.10372 7.05613 3.57694 7.06212 3.56805ZM5.88547 5.78352C5.88005 5.78531 5.87463 5.78686 5.86933 5.78879C4.43379 6.28852 3.965 7.29562 3.95993 7.30661C4.37298 7.62737 4.89105 7.82088 5.45532 7.82088C5.79225 7.82088 6.1132 7.75238 6.40521 7.62834C6.36918 7.41608 6.22783 6.67204 5.88547 5.78352ZM6.81491 7.40635C7.36122 7.03823 7.74921 6.45366 7.85745 5.77656C7.80737 5.76044 7.12666 5.54526 6.34134 5.67098C6.66047 6.54673 6.79014 7.25994 6.81491 7.40635ZM5.97882 4.80942C6.03529 4.92528 6.08998 5.0432 6.14047 5.16172C6.15842 5.20423 6.17595 5.24591 6.19306 5.28758C7.02888 5.18255 7.85232 5.35925 7.88752 5.36647C7.88196 4.79052 7.67564 4.26194 7.33426 3.84811C7.32966 3.85463 6.93943 4.41766 5.97882 4.80942Z" fill="white"/>
</svg>
