<svg width="11" height="11" viewBox="0 0 11 11" fill="none" xmlns="http://www.w3.org/2000/svg">
<path opacity="0.1" fill-rule="evenodd" clip-rule="evenodd" d="M0.13916 5.39545C0.13916 2.44522 2.53079 0.0535889 5.48102 0.0535889C8.43126 0.0535889 10.8229 2.44522 10.8229 5.39545C10.8229 8.34568 8.43126 10.7373 5.48102 10.7373C2.53079 10.7373 0.13916 8.34568 0.13916 5.39545Z" fill="white"/>
<path fill-rule="evenodd" clip-rule="evenodd" d="M5.321 4.39554L5.33221 4.58038L5.14539 4.55775C4.46534 4.47099 3.87123 4.17675 3.3668 3.68259L3.12019 3.43739L3.05667 3.61846C2.92215 4.02209 3.00809 4.44836 3.28833 4.73505C3.43779 4.89348 3.40417 4.91612 3.14635 4.82181C3.05667 4.79163 2.9782 4.769 2.97073 4.78031C2.94457 4.80672 3.03425 5.14999 3.10524 5.2858C3.20239 5.47441 3.40043 5.65925 3.61715 5.76865L3.80024 5.85541L3.58352 5.85918C3.37427 5.85918 3.3668 5.86295 3.38922 5.94217C3.46395 6.18737 3.75914 6.44765 4.08795 6.56082L4.31961 6.64004L4.11784 6.76075C3.81892 6.93427 3.46769 7.03235 3.11645 7.0399C2.94831 7.04367 2.81006 7.05876 2.81006 7.07007C2.81006 7.1078 3.26591 7.31904 3.53121 7.40203C4.32709 7.64723 5.27243 7.54161 5.98237 7.12289C6.4868 6.82488 6.99123 6.23263 7.22663 5.65925C7.35367 5.3537 7.48071 4.7954 7.48071 4.52757C7.48071 4.35405 7.49192 4.33142 7.70117 4.12394C7.82447 4.00323 7.94031 3.8712 7.96273 3.83348C8.00009 3.7618 7.99635 3.7618 7.80579 3.82593C7.48819 3.9391 7.44335 3.92401 7.60028 3.75426C7.71611 3.63355 7.85437 3.41476 7.85437 3.35063C7.85437 3.33931 7.79832 3.35817 7.7348 3.39212C7.66754 3.42985 7.51808 3.48643 7.40598 3.52038L7.20421 3.58451L7.02112 3.46002C6.92024 3.39212 6.77825 3.31668 6.70352 3.29404C6.51295 3.24123 6.2215 3.24878 6.04962 3.30913C5.58256 3.47889 5.28737 3.91647 5.321 4.39554Z" fill="white"/>
</svg>
